<svg version="1.1" id="Layer_1" xmlns="http://www.w3.org/2000/svg" xmlns:xlink="http://www.w3.org/1999/xlink" x="0px" y="0px"
	 width="100%" viewBox="0 0 192 576" enable-background="new 0 0 192 576" xml:space="preserve">
<path fill="#000000" opacity="1.000000" stroke="none" 
	d="
M118.999527,557.110107 
	C100.670280,557.107727 82.828438,556.703674 65.016350,557.257141 
	C54.866421,557.572632 47.082005,551.845215 50.160133,539.795654 
	C51.206230,538.097961 53.353863,539.192932 54.847137,537.846863 
	C54.805943,537.393555 54.995609,536.522766 54.656029,536.186646 
	C49.341114,530.925720 49.688622,524.302429 49.757431,517.573730 
	C50.229359,471.425629 50.166023,425.268066 51.083008,379.129608 
	C51.864437,339.811890 51.172951,300.488678 52.171028,261.183258 
	C52.522148,247.355743 52.660290,233.534988 52.617470,219.710739 
	C52.602173,214.772766 54.766491,210.592560 56.863918,206.538040 
	C63.062061,194.556473 65.945000,182.095215 64.778015,168.556076 
	C64.179245,161.609177 64.543167,154.564957 64.720200,147.570999 
	C64.824768,143.439819 63.412281,139.015152 67.307404,135.437805 
	C68.281044,134.543625 67.775444,131.933273 67.785355,130.110794 
	C67.993217,91.894119 76.771919,55.621357 92.382301,20.865561 
	C93.668297,18.002367 95.080544,16.140388 98.556419,16.244389 
	C101.765022,16.340391 103.153587,18.042763 104.332214,20.740665 
	C119.279747,54.955837 128.774796,90.374344 128.373550,128.025497 
	C128.334778,131.664017 128.127777,135.317551 131.506348,138.048096 
	C132.846313,139.131058 132.243317,141.200729 132.246582,142.838150 
	C132.272446,155.835205 132.366501,168.833710 132.200394,181.828720 
	C132.141479,186.438721 132.689255,190.762299 135.010620,194.794693 
	C135.505600,195.654480 135.728226,196.669388 136.210114,197.538635 
	C143.473236,210.639832 144.541473,224.722015 144.504822,239.476944 
	C144.375320,291.622925 144.617676,343.778564 145.556686,395.915466 
	C146.207840,432.070526 145.994797,468.221436 146.420731,504.371826 
	C146.461884,507.865814 146.648254,511.359985 146.843048,514.849854 
	C147.289627,522.850159 148.158813,530.932373 141.136703,537.062012 
	C146.961121,540.067871 148.212860,542.848999 146.998550,549.013000 
	C146.353485,552.287476 140.602325,556.860779 136.491104,556.999573 
	C130.832397,557.190613 125.163765,557.086975 118.999527,557.110107 
M62.993141,535.240295 
	C62.537476,539.684814 65.908669,545.333252 58.696476,547.529053 
	C60.138187,548.982422 61.549824,549.262024 63.103542,549.256348 
	C86.261894,549.171143 109.420326,549.106750 132.578629,549.010376 
	C134.449203,549.002625 136.523697,549.335144 137.921814,547.119812 
	C136.522568,545.982300 133.973663,546.596497 133.922592,544.401428 
	C133.820206,540.000732 132.398346,535.336121 135.729492,531.445618 
	C138.275238,528.472351 138.983032,525.098145 138.910812,521.258179 
	C138.328171,490.276825 138.924942,459.290344 138.138351,428.302063 
	C137.077316,386.501282 138.098358,344.675262 137.049164,302.862488 
	C136.439087,278.548492 136.512085,254.208313 136.794998,229.885925 
	C136.890717,221.656143 135.663223,214.057938 131.831696,206.838058 
	C126.084175,196.007812 123.522202,184.600769 124.546211,172.242783 
	C125.163269,164.795975 124.679718,157.255875 124.635803,149.758026 
	C124.626312,148.137268 125.234238,145.977692 123.607925,145.108078 
	C120.314957,143.347305 120.801468,140.470337 120.892265,137.719086 
	C121.806580,110.014137 117.970032,82.965370 109.652206,56.552174 
	C106.618408,46.918365 103.728203,37.204273 98.824608,28.174835 
	C96.642326,29.384754 96.270439,31.299742 95.583649,32.919884 
	C91.029541,43.663090 87.468620,54.745415 84.250778,65.957306 
	C77.390457,89.860657 75.429199,114.336578 75.354988,139.055695 
	C75.350067,140.696136 75.733253,143.199265 74.868576,143.824081 
	C71.414909,146.319748 72.413963,149.720718 72.343597,152.896057 
	C72.232887,157.892426 71.861015,162.940216 72.385574,167.882828 
	C74.025192,183.332062 70.374008,197.557007 63.178383,211.056976 
	C60.834576,215.454300 60.217709,220.081909 60.210297,225.022247 
	C60.173553,249.511154 59.992432,273.996918 59.539429,298.486603 
	C58.796909,338.627930 59.356152,378.782928 58.489063,418.933441 
	C57.794846,451.079102 58.259796,483.248444 57.921997,515.404236 
	C57.849201,522.334229 57.747204,528.951477 62.993141,535.240295 
z"/>
</svg>